<svg xmlns="http://www.w3.org/2000/svg" xmlns:xlink="http://www.w3.org/1999/xlink" width="500" zoomAndPan="magnify" viewBox="0 0 375 149.999998" height="200" preserveAspectRatio="xMidYMid meet" version="1.0"><defs><g/><clipPath id="e988bf1731"><path d="M 54.667969 63.597656 L 92.917969 63.597656 L 92.917969 109.347656 L 54.667969 109.347656 Z M 54.667969 63.597656 " clip-rule="nonzero"/></clipPath><clipPath id="821b35f67b"><path d="M 87.679688 54.445312 L 107.929688 54.445312 L 107.929688 76.195312 L 87.679688 76.195312 Z M 87.679688 54.445312 " clip-rule="nonzero"/></clipPath><clipPath id="a9b7ab2f7c"><path d="M 44.5625 100.238281 L 64.8125 100.238281 L 64.8125 121.988281 L 44.5625 121.988281 Z M 44.5625 100.238281 " clip-rule="nonzero"/></clipPath></defs><path fill="#417eaf" d="M 64.617188 97.910156 L 66.148438 97.910156 C 66.566406 97.910156 66.910156 97.566406 66.910156 97.148438 C 66.910156 96.726562 66.566406 96.382812 66.148438 96.382812 L 64.617188 96.382812 C 64.195312 96.382812 63.851562 96.726562 63.851562 97.148438 C 63.851562 97.566406 64.195312 97.910156 64.617188 97.910156 " fill-opacity="1" fill-rule="nonzero"/><path fill="#417eaf" d="M 87.554688 96.382812 L 69.207031 96.382812 C 68.785156 96.382812 68.441406 96.726562 68.441406 97.148438 C 68.441406 97.566406 68.785156 97.910156 69.207031 97.910156 L 87.554688 97.910156 C 87.976562 97.910156 88.320312 97.566406 88.320312 97.148438 C 88.320312 96.726562 87.976562 96.382812 87.554688 96.382812 " fill-opacity="1" fill-rule="nonzero"/><path fill="#417eaf" d="M 64.617188 93.335938 L 66.148438 93.335938 C 66.566406 93.335938 66.910156 92.992188 66.910156 92.570312 C 66.910156 92.152344 66.566406 91.808594 66.148438 91.808594 L 64.617188 91.808594 C 64.195312 91.808594 63.851562 92.152344 63.851562 92.570312 C 63.851562 92.992188 64.195312 93.335938 64.617188 93.335938 " fill-opacity="1" fill-rule="nonzero"/><path fill="#417eaf" d="M 87.554688 91.808594 L 69.207031 91.808594 C 68.785156 91.808594 68.441406 92.152344 68.441406 92.570312 C 68.441406 92.992188 68.785156 93.335938 69.207031 93.335938 L 87.554688 93.335938 C 87.976562 93.335938 88.320312 92.992188 88.320312 92.570312 C 88.320312 92.152344 87.976562 91.808594 87.554688 91.808594 " fill-opacity="1" fill-rule="nonzero"/><path fill="#417eaf" d="M 64.617188 88.757812 L 66.148438 88.757812 C 66.566406 88.757812 66.910156 88.417969 66.910156 87.996094 C 66.910156 87.578125 66.566406 87.234375 66.148438 87.234375 L 64.617188 87.234375 C 64.195312 87.234375 63.851562 87.578125 63.851562 87.996094 C 63.851562 88.417969 64.195312 88.757812 64.617188 88.757812 " fill-opacity="1" fill-rule="nonzero"/><path fill="#417eaf" d="M 87.554688 87.234375 L 69.207031 87.234375 C 68.785156 87.234375 68.441406 87.578125 68.441406 87.996094 C 68.441406 88.417969 68.785156 88.757812 69.207031 88.757812 L 87.554688 88.757812 C 87.976562 88.757812 88.320312 88.417969 88.320312 87.996094 C 88.320312 87.578125 87.976562 87.234375 87.554688 87.234375 " fill-opacity="1" fill-rule="nonzero"/><path fill="#417eaf" d="M 64.617188 84.183594 L 66.148438 84.183594 C 66.566406 84.183594 66.910156 83.84375 66.910156 83.421875 C 66.910156 83.003906 66.566406 82.660156 66.148438 82.660156 L 64.617188 82.660156 C 64.195312 82.660156 63.851562 83.003906 63.851562 83.421875 C 63.851562 83.84375 64.195312 84.183594 64.617188 84.183594 " fill-opacity="1" fill-rule="nonzero"/><path fill="#417eaf" d="M 87.554688 82.660156 L 69.207031 82.660156 C 68.785156 82.660156 68.441406 83.003906 68.441406 83.421875 C 68.441406 83.84375 68.785156 84.183594 69.207031 84.183594 L 87.554688 84.183594 C 87.976562 84.183594 88.320312 83.84375 88.320312 83.421875 C 88.320312 83.003906 87.976562 82.660156 87.554688 82.660156 " fill-opacity="1" fill-rule="nonzero"/><path fill="#417eaf" d="M 64.617188 79.609375 L 66.148438 79.609375 C 66.566406 79.609375 66.910156 79.265625 66.910156 78.847656 C 66.910156 78.425781 66.566406 78.085938 66.148438 78.085938 L 64.617188 78.085938 C 64.195312 78.085938 63.851562 78.425781 63.851562 78.847656 C 63.851562 79.265625 64.195312 79.609375 64.617188 79.609375 " fill-opacity="1" fill-rule="nonzero"/><path fill="#417eaf" d="M 68.441406 78.847656 C 68.441406 79.265625 68.785156 79.609375 69.207031 79.609375 L 87.554688 79.609375 C 87.976562 79.609375 88.320312 79.265625 88.320312 78.847656 C 88.320312 78.425781 87.976562 78.085938 87.554688 78.085938 L 69.207031 78.085938 C 68.785156 78.085938 68.441406 78.425781 68.441406 78.847656 " fill-opacity="1" fill-rule="nonzero"/><g clip-path="url(#e988bf1731)"><path fill="#417eaf" d="M 56.207031 68.171875 L 59.265625 68.171875 L 59.265625 104.007812 C 59.265625 104.429688 59.609375 104.773438 60.03125 104.773438 L 86.789062 104.773438 L 86.789062 107.820312 L 56.207031 107.820312 Z M 60.796875 65.121094 L 80.671875 65.121094 L 80.671875 75.035156 C 80.671875 75.453125 81.015625 75.796875 81.4375 75.796875 L 91.378906 75.796875 L 91.378906 103.246094 L 60.796875 103.246094 Z M 90.296875 74.273438 L 82.203125 74.273438 L 82.203125 66.199219 Z M 55.441406 109.347656 L 87.554688 109.347656 C 87.976562 109.347656 88.320312 109.003906 88.320312 108.585938 L 88.320312 104.773438 L 92.140625 104.773438 C 92.5625 104.773438 92.90625 104.429688 92.90625 104.007812 L 92.90625 75.035156 C 92.90625 75.015625 92.898438 75 92.898438 74.988281 C 92.890625 74.917969 92.878906 74.855469 92.859375 74.789062 C 92.851562 74.765625 92.84375 74.742188 92.832031 74.71875 C 92.796875 74.636719 92.75 74.5625 92.683594 74.496094 L 81.980469 63.820312 C 81.914062 63.753906 81.835938 63.707031 81.753906 63.671875 C 81.730469 63.660156 81.707031 63.652344 81.683594 63.644531 C 81.617188 63.625 81.554688 63.613281 81.484375 63.605469 C 81.46875 63.605469 81.457031 63.597656 81.4375 63.597656 L 60.03125 63.597656 C 59.609375 63.597656 59.265625 63.941406 59.265625 64.359375 L 59.265625 66.648438 L 55.441406 66.648438 C 55.023438 66.648438 54.679688 66.988281 54.679688 67.410156 L 54.679688 108.585938 C 54.679688 109.003906 55.023438 109.347656 55.441406 109.347656 " fill-opacity="1" fill-rule="nonzero"/></g><path fill="#417eaf" d="M 65.382812 71.984375 L 68.441406 71.984375 L 68.441406 75.035156 L 65.382812 75.035156 Z M 64.617188 76.558594 L 69.207031 76.558594 C 69.625 76.558594 69.96875 76.21875 69.96875 75.796875 L 69.96875 71.222656 C 69.96875 70.800781 69.625 70.460938 69.207031 70.460938 L 64.617188 70.460938 C 64.195312 70.460938 63.851562 70.800781 63.851562 71.222656 L 63.851562 75.796875 C 63.851562 76.21875 64.195312 76.558594 64.617188 76.558594 " fill-opacity="1" fill-rule="nonzero"/><g clip-path="url(#821b35f67b)"><path fill="#417eaf" d="M 90.628906 59.492188 C 91.613281 59.492188 92.515625 59.492188 93.648438 59.496094 C 97.054688 59.507812 100.457031 60.949219 102.820312 63.441406 C 104.996094 65.734375 106.242188 68.84375 106.25 72.023438 L 106.25 75.320312 C 106.277344 75.523438 106.328125 75.722656 106.460938 75.871094 C 106.550781 75.972656 106.667969 76.050781 106.792969 76.097656 C 106.960938 76.164062 107.015625 76.148438 107.191406 76.148438 C 107.257812 76.128906 107.324219 76.113281 107.386719 76.097656 C 107.449219 76.066406 107.511719 76.042969 107.570312 76.003906 C 107.738281 75.890625 107.859375 75.710938 107.90625 75.519531 C 107.921875 75.453125 107.921875 75.386719 107.929688 75.320312 L 107.929688 72.019531 C 107.921875 67.449219 105.578125 62.957031 101.738281 60.335938 C 99.367188 58.71875 96.472656 57.832031 93.609375 57.828125 L 90.628906 57.828125 L 92.554688 55.917969 C 92.554688 55.917969 92.628906 55.84375 92.675781 55.769531 C 92.976562 55.296875 92.640625 54.53125 92.011719 54.5 C 91.804688 54.484375 91.597656 54.550781 91.4375 54.675781 C 91.40625 54.703125 91.402344 54.710938 91.367188 54.738281 L 88.007812 58.070312 C 87.902344 58.179688 87.882812 58.222656 87.84375 58.296875 C 87.707031 58.578125 87.746094 58.933594 87.945312 59.179688 C 87.972656 59.210938 87.976562 59.21875 88.007812 59.25 L 91.367188 62.582031 C 91.542969 62.742188 91.765625 62.828125 92.011719 62.824219 C 92.050781 62.820312 92.0625 62.820312 92.101562 62.8125 C 92.566406 62.734375 92.902344 62.222656 92.769531 61.761719 C 92.742188 61.671875 92.703125 61.585938 92.648438 61.507812 C 92.621094 61.472656 92.589844 61.4375 92.554688 61.402344 L 90.628906 59.492188 " fill-opacity="1" fill-rule="nonzero"/></g><g clip-path="url(#a9b7ab2f7c)"><path fill="#417eaf" d="M 61.863281 116.941406 C 60.878906 116.941406 59.976562 116.941406 58.84375 116.9375 C 55.4375 116.925781 52.035156 115.484375 49.671875 112.992188 C 47.496094 110.699219 46.25 107.589844 46.242188 104.410156 L 46.242188 101.113281 C 46.21875 100.910156 46.164062 100.710938 46.035156 100.5625 C 45.941406 100.460938 45.828125 100.382812 45.703125 100.335938 C 45.53125 100.269531 45.480469 100.285156 45.300781 100.285156 C 45.234375 100.300781 45.171875 100.320312 45.105469 100.335938 C 45.046875 100.367188 44.980469 100.390625 44.925781 100.429688 C 44.757812 100.542969 44.636719 100.722656 44.585938 100.914062 C 44.570312 100.980469 44.570312 101.046875 44.5625 101.113281 L 44.5625 104.414062 C 44.570312 108.984375 46.917969 113.476562 50.757812 116.097656 C 53.125 117.714844 56.019531 118.601562 58.882812 118.605469 L 61.863281 118.605469 L 59.9375 120.515625 C 59.9375 120.515625 59.863281 120.589844 59.820312 120.664062 C 59.515625 121.136719 59.851562 121.902344 60.480469 121.933594 C 60.6875 121.949219 60.894531 121.882812 61.054688 121.757812 C 61.085938 121.730469 61.09375 121.722656 61.125 121.695312 L 64.484375 118.363281 C 64.589844 118.253906 64.609375 118.210938 64.648438 118.136719 C 64.785156 117.855469 64.746094 117.5 64.546875 117.253906 C 64.523438 117.222656 64.515625 117.214844 64.484375 117.183594 L 61.125 113.851562 C 60.953125 113.691406 60.726562 113.605469 60.480469 113.609375 C 60.441406 113.613281 60.433594 113.613281 60.390625 113.621094 C 59.925781 113.699219 59.589844 114.210938 59.722656 114.671875 C 59.75 114.761719 59.789062 114.847656 59.84375 114.925781 C 59.871094 114.960938 59.902344 114.996094 59.9375 115.03125 L 61.863281 116.941406 " fill-opacity="1" fill-rule="nonzero"/></g><g fill="#498fc8" fill-opacity="1"><g transform="translate(124.166612, 91.233476)"><g><path d="M 22.5625 -11.859375 C 22.5625 -8.367188 21.59375 -5.4375 19.65625 -3.0625 C 17.71875 -0.695312 15.328125 0.484375 12.484375 0.484375 C 11.453125 0.484375 10.59375 0.335938 9.90625 0.046875 C 9.21875 -0.242188 8.457031 -0.785156 7.625 -1.578125 L 7.625 5.953125 C 7.625 7.453125 7.878906 8.414062 8.390625 8.84375 C 8.910156 9.28125 10.066406 9.515625 11.859375 9.546875 L 11.859375 10.421875 L 0.234375 10.421875 L 0.234375 9.59375 C 1.648438 9.46875 2.5625 9.195312 2.96875 8.78125 C 3.382812 8.363281 3.59375 7.53125 3.59375 6.28125 L 3.59375 -16.171875 C 3.59375 -17.296875 3.460938 -18.03125 3.203125 -18.375 C 2.953125 -18.726562 2.425781 -18.90625 1.625 -18.90625 C 1.113281 -18.90625 0.71875 -18.890625 0.4375 -18.859375 L 0.4375 -19.625 C 2.445312 -20.238281 4.75 -21.054688 7.34375 -22.078125 L 7.625 -21.984375 L 7.625 -18.28125 C 9.675781 -20.8125 11.984375 -22.078125 14.546875 -22.078125 C 16.878906 -22.078125 18.796875 -21.113281 20.296875 -19.1875 C 21.804688 -17.269531 22.5625 -14.828125 22.5625 -11.859375 Z M 18.4375 -9.984375 C 18.4375 -12.765625 17.898438 -14.992188 16.828125 -16.671875 C 15.753906 -18.359375 14.320312 -19.203125 12.53125 -19.203125 C 11.40625 -19.203125 10.304688 -18.847656 9.234375 -18.140625 C 8.160156 -17.441406 7.625 -16.738281 7.625 -16.03125 L 7.625 -4.21875 C 7.625 -3.519531 8.175781 -2.816406 9.28125 -2.109375 C 10.382812 -1.410156 11.5 -1.0625 12.625 -1.0625 C 14.351562 -1.0625 15.753906 -1.882812 16.828125 -3.53125 C 17.898438 -5.175781 18.4375 -7.328125 18.4375 -9.984375 Z M 18.4375 -9.984375 "/></g></g></g><g fill="#498fc8" fill-opacity="1"><g transform="translate(148.166565, 91.233476)"><g><path d="M 21.21875 -1.921875 C 20.382812 -0.992188 19.65625 -0.359375 19.03125 -0.015625 C 18.40625 0.316406 17.691406 0.484375 16.890625 0.484375 C 15.898438 0.484375 15.171875 0.21875 14.703125 -0.3125 C 14.242188 -0.84375 13.953125 -1.75 13.828125 -3.03125 C 11.078125 -0.6875 8.738281 0.484375 6.8125 0.484375 C 5.34375 0.484375 4.132812 0.00390625 3.1875 -0.953125 C 2.25 -1.921875 1.78125 -3.15625 1.78125 -4.65625 C 1.78125 -6.382812 2.351562 -7.773438 3.5 -8.828125 C 4.53125 -9.722656 5.5625 -10.4375 6.59375 -10.96875 C 7.632812 -11.5 10.03125 -12.515625 13.78125 -14.015625 L 13.78125 -16.9375 C 13.78125 -19.59375 12.5625 -20.921875 10.125 -20.921875 C 9.164062 -20.921875 8.347656 -20.6875 7.671875 -20.21875 C 7.003906 -19.757812 6.671875 -19.210938 6.671875 -18.578125 C 6.671875 -18.222656 6.71875 -17.835938 6.8125 -17.421875 C 6.875 -16.972656 6.90625 -16.71875 6.90625 -16.65625 C 6.90625 -16.113281 6.6875 -15.640625 6.25 -15.234375 C 5.820312 -14.835938 5.320312 -14.640625 4.75 -14.640625 C 4.175781 -14.640625 3.6875 -14.847656 3.28125 -15.265625 C 2.882812 -15.679688 2.6875 -16.160156 2.6875 -16.703125 C 2.6875 -18.015625 3.34375 -19.210938 4.65625 -20.296875 C 6.09375 -21.484375 8.125 -22.078125 10.75 -22.078125 C 13.726562 -22.078125 15.726562 -21.148438 16.75 -19.296875 C 17.351562 -18.304688 17.65625 -16.675781 17.65625 -14.40625 L 17.65625 -5.046875 C 17.65625 -3.984375 17.757812 -3.25 17.96875 -2.84375 C 18.175781 -2.445312 18.554688 -2.25 19.109375 -2.25 C 19.773438 -2.25 20.476562 -2.554688 21.21875 -3.171875 Z M 13.78125 -5.90625 L 13.78125 -12.859375 C 10.894531 -11.804688 8.875 -10.78125 7.71875 -9.78125 C 6.570312 -8.789062 6 -7.59375 6 -6.1875 L 6 -6 C 6 -4.976562 6.296875 -4.101562 6.890625 -3.375 C 7.484375 -2.65625 8.195312 -2.296875 9.03125 -2.296875 C 10.144531 -2.296875 11.3125 -2.648438 12.53125 -3.359375 C 13.039062 -3.679688 13.375 -4 13.53125 -4.3125 C 13.695312 -4.632812 13.78125 -5.164062 13.78125 -5.90625 Z M 13.78125 -5.90625 "/></g></g></g><g fill="#498fc8" fill-opacity="1"><g transform="translate(169.47853, 91.233476)"><g><path d="M 22.5625 -11.859375 C 22.5625 -8.367188 21.59375 -5.4375 19.65625 -3.0625 C 17.71875 -0.695312 15.328125 0.484375 12.484375 0.484375 C 11.453125 0.484375 10.59375 0.335938 9.90625 0.046875 C 9.21875 -0.242188 8.457031 -0.785156 7.625 -1.578125 L 7.625 5.953125 C 7.625 7.453125 7.878906 8.414062 8.390625 8.84375 C 8.910156 9.28125 10.066406 9.515625 11.859375 9.546875 L 11.859375 10.421875 L 0.234375 10.421875 L 0.234375 9.59375 C 1.648438 9.46875 2.5625 9.195312 2.96875 8.78125 C 3.382812 8.363281 3.59375 7.53125 3.59375 6.28125 L 3.59375 -16.171875 C 3.59375 -17.296875 3.460938 -18.03125 3.203125 -18.375 C 2.953125 -18.726562 2.425781 -18.90625 1.625 -18.90625 C 1.113281 -18.90625 0.71875 -18.890625 0.4375 -18.859375 L 0.4375 -19.625 C 2.445312 -20.238281 4.75 -21.054688 7.34375 -22.078125 L 7.625 -21.984375 L 7.625 -18.28125 C 9.675781 -20.8125 11.984375 -22.078125 14.546875 -22.078125 C 16.878906 -22.078125 18.796875 -21.113281 20.296875 -19.1875 C 21.804688 -17.269531 22.5625 -14.828125 22.5625 -11.859375 Z M 18.4375 -9.984375 C 18.4375 -12.765625 17.898438 -14.992188 16.828125 -16.671875 C 15.753906 -18.359375 14.320312 -19.203125 12.53125 -19.203125 C 11.40625 -19.203125 10.304688 -18.847656 9.234375 -18.140625 C 8.160156 -17.441406 7.625 -16.738281 7.625 -16.03125 L 7.625 -4.21875 C 7.625 -3.519531 8.175781 -2.816406 9.28125 -2.109375 C 10.382812 -1.410156 11.5 -1.0625 12.625 -1.0625 C 14.351562 -1.0625 15.753906 -1.882812 16.828125 -3.53125 C 17.898438 -5.175781 18.4375 -7.328125 18.4375 -9.984375 Z M 18.4375 -9.984375 "/></g></g></g><g fill="#498fc8" fill-opacity="1"><g transform="translate(193.478483, 91.233476)"><g><path d="M 20.359375 -7.53125 C 18.273438 -2.1875 14.878906 0.484375 10.171875 0.484375 C 7.421875 0.484375 5.238281 -0.484375 3.625 -2.421875 C 2.007812 -4.359375 1.203125 -6.972656 1.203125 -10.265625 C 1.203125 -13.753906 2.128906 -16.59375 3.984375 -18.78125 C 5.835938 -20.976562 8.253906 -22.078125 11.234375 -22.078125 C 13.796875 -22.078125 15.84375 -21.164062 17.375 -19.34375 C 18.425781 -18 19.113281 -15.984375 19.4375 -13.296875 L 4.65625 -13.296875 C 4.75 -10.578125 5.226562 -8.367188 6.09375 -6.671875 C 7.46875 -4.109375 9.484375 -2.828125 12.140625 -2.828125 C 13.679688 -2.828125 15.019531 -3.210938 16.15625 -3.984375 C 17.289062 -4.753906 18.429688 -6.050781 19.578125 -7.875 Z M 14.546875 -14.828125 C 14.222656 -16.910156 13.722656 -18.351562 13.046875 -19.15625 C 12.378906 -19.957031 11.3125 -20.359375 9.84375 -20.359375 C 6.957031 -20.359375 5.257812 -18.515625 4.75 -14.828125 Z M 14.546875 -14.828125 "/></g></g></g><g fill="#498fc8" fill-opacity="1"><g transform="translate(214.790448, 91.233476)"><g><path d="M 16.078125 -19.53125 C 16.078125 -18.863281 15.910156 -18.335938 15.578125 -17.953125 C 15.242188 -17.566406 14.785156 -17.375 14.203125 -17.375 C 13.660156 -17.375 13.019531 -17.695312 12.28125 -18.34375 C 11.769531 -18.820312 11.359375 -19.0625 11.046875 -19.0625 C 10.398438 -19.0625 9.675781 -18.59375 8.875 -17.65625 C 8.082031 -16.726562 7.6875 -15.882812 7.6875 -15.125 L 7.6875 -4.3125 C 7.6875 -2.9375 7.957031 -2.007812 8.5 -1.53125 C 9.039062 -1.050781 10.128906 -0.78125 11.765625 -0.71875 L 11.765625 0 L 0.234375 0 L 0.234375 -0.71875 C 1.773438 -1.007812 2.726562 -1.328125 3.09375 -1.671875 C 3.457031 -2.023438 3.640625 -2.8125 3.640625 -4.03125 L 3.640625 -16.03125 C 3.640625 -17.082031 3.519531 -17.820312 3.28125 -18.25 C 3.039062 -18.6875 2.617188 -18.90625 2.015625 -18.90625 C 1.503906 -18.90625 0.945312 -18.84375 0.34375 -18.71875 L 0.34375 -19.484375 C 2.894531 -20.316406 5.257812 -21.179688 7.4375 -22.078125 L 7.6875 -21.984375 L 7.6875 -17.5625 C 8.863281 -19.257812 9.867188 -20.4375 10.703125 -21.09375 C 11.535156 -21.75 12.445312 -22.078125 13.4375 -22.078125 C 14.269531 -22.078125 14.914062 -21.851562 15.375 -21.40625 C 15.84375 -20.957031 16.078125 -20.332031 16.078125 -19.53125 Z M 16.078125 -19.53125 "/></g></g></g><g fill="#498fc8" fill-opacity="1"><g transform="translate(230.774421, 91.233476)"><g><path d="M 28.46875 -23.609375 L 27.3125 -23.609375 C 26.769531 -26.265625 26.039062 -27.953125 25.125 -28.671875 C 24.21875 -29.398438 22.40625 -29.765625 19.6875 -29.765625 L 17.09375 -29.765625 L 17.09375 -5.234375 C 17.09375 -3.472656 17.363281 -2.335938 17.90625 -1.828125 C 18.445312 -1.316406 19.710938 -1.007812 21.703125 -0.90625 L 21.703125 0 L 7.6875 0 L 7.6875 -0.90625 C 9.664062 -1.039062 10.910156 -1.367188 11.421875 -1.890625 C 11.929688 -2.421875 12.1875 -3.710938 12.1875 -5.765625 L 12.1875 -29.765625 L 9.59375 -29.765625 C 6.90625 -29.765625 5.101562 -29.394531 4.1875 -28.65625 C 3.28125 -27.914062 2.539062 -26.234375 1.96875 -23.609375 L 0.8125 -23.609375 L 1.109375 -31.78125 L 28.171875 -31.78125 Z M 28.46875 -23.609375 "/></g></g></g><g fill="#498fc8" fill-opacity="1"><g transform="translate(260.102365, 91.233476)"><g><path d="M 16.078125 -19.53125 C 16.078125 -18.863281 15.910156 -18.335938 15.578125 -17.953125 C 15.242188 -17.566406 14.785156 -17.375 14.203125 -17.375 C 13.660156 -17.375 13.019531 -17.695312 12.28125 -18.34375 C 11.769531 -18.820312 11.359375 -19.0625 11.046875 -19.0625 C 10.398438 -19.0625 9.675781 -18.59375 8.875 -17.65625 C 8.082031 -16.726562 7.6875 -15.882812 7.6875 -15.125 L 7.6875 -4.3125 C 7.6875 -2.9375 7.957031 -2.007812 8.5 -1.53125 C 9.039062 -1.050781 10.128906 -0.78125 11.765625 -0.71875 L 11.765625 0 L 0.234375 0 L 0.234375 -0.71875 C 1.773438 -1.007812 2.726562 -1.328125 3.09375 -1.671875 C 3.457031 -2.023438 3.640625 -2.8125 3.640625 -4.03125 L 3.640625 -16.03125 C 3.640625 -17.082031 3.519531 -17.820312 3.28125 -18.25 C 3.039062 -18.6875 2.617188 -18.90625 2.015625 -18.90625 C 1.503906 -18.90625 0.945312 -18.84375 0.34375 -18.71875 L 0.34375 -19.484375 C 2.894531 -20.316406 5.257812 -21.179688 7.4375 -22.078125 L 7.6875 -21.984375 L 7.6875 -17.5625 C 8.863281 -19.257812 9.867188 -20.4375 10.703125 -21.09375 C 11.535156 -21.75 12.445312 -22.078125 13.4375 -22.078125 C 14.269531 -22.078125 14.914062 -21.851562 15.375 -21.40625 C 15.84375 -20.957031 16.078125 -20.332031 16.078125 -19.53125 Z M 16.078125 -19.53125 "/></g></g></g><g fill="#498fc8" fill-opacity="1"><g transform="translate(276.086339, 91.233476)"><g><path d="M 21.21875 -1.921875 C 20.382812 -0.992188 19.65625 -0.359375 19.03125 -0.015625 C 18.40625 0.316406 17.691406 0.484375 16.890625 0.484375 C 15.898438 0.484375 15.171875 0.21875 14.703125 -0.3125 C 14.242188 -0.84375 13.953125 -1.75 13.828125 -3.03125 C 11.078125 -0.6875 8.738281 0.484375 6.8125 0.484375 C 5.34375 0.484375 4.132812 0.00390625 3.1875 -0.953125 C 2.25 -1.921875 1.78125 -3.15625 1.78125 -4.65625 C 1.78125 -6.382812 2.351562 -7.773438 3.5 -8.828125 C 4.53125 -9.722656 5.5625 -10.4375 6.59375 -10.96875 C 7.632812 -11.5 10.03125 -12.515625 13.78125 -14.015625 L 13.78125 -16.9375 C 13.78125 -19.59375 12.5625 -20.921875 10.125 -20.921875 C 9.164062 -20.921875 8.347656 -20.6875 7.671875 -20.21875 C 7.003906 -19.757812 6.671875 -19.210938 6.671875 -18.578125 C 6.671875 -18.222656 6.71875 -17.835938 6.8125 -17.421875 C 6.875 -16.972656 6.90625 -16.71875 6.90625 -16.65625 C 6.90625 -16.113281 6.6875 -15.640625 6.25 -15.234375 C 5.820312 -14.835938 5.320312 -14.640625 4.75 -14.640625 C 4.175781 -14.640625 3.6875 -14.847656 3.28125 -15.265625 C 2.882812 -15.679688 2.6875 -16.160156 2.6875 -16.703125 C 2.6875 -18.015625 3.34375 -19.210938 4.65625 -20.296875 C 6.09375 -21.484375 8.125 -22.078125 10.75 -22.078125 C 13.726562 -22.078125 15.726562 -21.148438 16.75 -19.296875 C 17.351562 -18.304688 17.65625 -16.675781 17.65625 -14.40625 L 17.65625 -5.046875 C 17.65625 -3.984375 17.757812 -3.25 17.96875 -2.84375 C 18.175781 -2.445312 18.554688 -2.25 19.109375 -2.25 C 19.773438 -2.25 20.476562 -2.554688 21.21875 -3.171875 Z M 13.78125 -5.90625 L 13.78125 -12.859375 C 10.894531 -11.804688 8.875 -10.78125 7.71875 -9.78125 C 6.570312 -8.789062 6 -7.59375 6 -6.1875 L 6 -6 C 6 -4.976562 6.296875 -4.101562 6.890625 -3.375 C 7.484375 -2.65625 8.195312 -2.296875 9.03125 -2.296875 C 10.144531 -2.296875 11.3125 -2.648438 12.53125 -3.359375 C 13.039062 -3.679688 13.375 -4 13.53125 -4.3125 C 13.695312 -4.632812 13.78125 -5.164062 13.78125 -5.90625 Z M 13.78125 -5.90625 "/></g></g></g><g fill="#498fc8" fill-opacity="1"><g transform="translate(297.398304, 91.233476)"><g><path d="M 23.28125 0 L 13.296875 0 L 13.296875 -0.71875 C 14.515625 -0.8125 15.320312 -1.128906 15.71875 -1.671875 C 16.113281 -2.222656 16.3125 -3.25 16.3125 -4.75 L 16.3125 -14.78125 C 16.3125 -17.882812 15.144531 -19.4375 12.8125 -19.4375 C 12.007812 -19.4375 11.269531 -19.253906 10.59375 -18.890625 C 9.925781 -18.523438 9.019531 -17.796875 7.875 -16.703125 L 7.875 -3.21875 C 7.875 -2.351562 8.097656 -1.742188 8.546875 -1.390625 C 8.992188 -1.035156 9.828125 -0.8125 11.046875 -0.71875 L 11.046875 0 L 0.859375 0 L 0.859375 -0.71875 C 2.078125 -0.8125 2.878906 -1.085938 3.265625 -1.546875 C 3.648438 -2.015625 3.84375 -2.9375 3.84375 -4.3125 L 3.84375 -16.21875 C 3.84375 -17.40625 3.710938 -18.210938 3.453125 -18.640625 C 3.203125 -19.078125 2.738281 -19.296875 2.0625 -19.296875 C 1.457031 -19.296875 1.023438 -19.234375 0.765625 -19.109375 L 0.765625 -19.921875 C 3.128906 -20.617188 5.335938 -21.335938 7.390625 -22.078125 L 7.734375 -21.984375 L 7.734375 -18.1875 C 9.359375 -19.726562 10.644531 -20.757812 11.59375 -21.28125 C 12.539062 -21.8125 13.570312 -22.078125 14.6875 -22.078125 C 16.445312 -22.078125 17.832031 -21.441406 18.84375 -20.171875 C 19.851562 -18.910156 20.359375 -17.144531 20.359375 -14.875 L 20.359375 -3.890625 C 20.359375 -2.703125 20.546875 -1.90625 20.921875 -1.5 C 21.304688 -1.101562 22.09375 -0.84375 23.28125 -0.71875 Z M 23.28125 0 "/></g></g></g><g fill="#498fc8" fill-opacity="1"><g transform="translate(321.398246, 91.233476)"><g><path d="M 16.703125 -5.65625 C 16.703125 -4 16.035156 -2.5625 14.703125 -1.34375 C 13.378906 -0.125 11.804688 0.484375 9.984375 0.484375 C 9.117188 0.484375 7.9375 0.320312 6.4375 0 C 5.40625 -0.257812 4.664062 -0.390625 4.21875 -0.390625 C 3.738281 -0.390625 3.375 -0.195312 3.125 0.1875 L 2.5 0.1875 L 2.5 -7.296875 L 3.265625 -7.296875 C 3.804688 -4.859375 4.539062 -3.128906 5.46875 -2.109375 C 6.394531 -1.085938 7.691406 -0.578125 9.359375 -0.578125 C 10.578125 -0.578125 11.546875 -0.890625 12.265625 -1.515625 C 12.984375 -2.140625 13.34375 -2.976562 13.34375 -4.03125 C 13.34375 -5.46875 12.507812 -6.664062 10.84375 -7.625 L 8.0625 -9.21875 C 6.007812 -10.394531 4.5625 -11.503906 3.71875 -12.546875 C 2.875 -13.585938 2.453125 -14.78125 2.453125 -16.125 C 2.453125 -17.882812 3.066406 -19.304688 4.296875 -20.390625 C 5.523438 -21.484375 7.117188 -22.03125 9.078125 -22.03125 C 10.253906 -22.03125 11.34375 -21.835938 12.34375 -21.453125 C 12.820312 -21.234375 13.25 -21.125 13.625 -21.125 C 13.757812 -21.125 13.984375 -21.25 14.296875 -21.5 L 14.40625 -21.59375 L 14.921875 -21.59375 L 15.125 -15.078125 L 14.40625 -15.078125 C 13.851562 -17.210938 13.175781 -18.726562 12.375 -19.625 C 11.582031 -20.519531 10.5 -20.96875 9.125 -20.96875 C 8 -20.96875 7.097656 -20.671875 6.421875 -20.078125 C 5.753906 -19.492188 5.421875 -18.707031 5.421875 -17.71875 C 5.421875 -16.332031 6.109375 -15.242188 7.484375 -14.453125 L 12.671875 -11.375 C 14.140625 -10.507812 15.175781 -9.644531 15.78125 -8.78125 C 16.394531 -7.914062 16.703125 -6.875 16.703125 -5.65625 Z M 16.703125 -5.65625 "/></g></g></g></svg>